<svg width="388" height="396" viewBox="0 0 388 396" fill="none" xmlns="http://www.w3.org/2000/svg">
<g filter="url(#filter0_d_16_43)">
<path d="M355.199 197.881C355.199 289.253 282.89 363.152 193.904 363.152C104.918 363.152 32.6095 289.253 32.6095 197.881C32.6095 106.508 104.918 32.6095 193.904 32.6095C282.89 32.6095 355.199 106.508 355.199 197.881Z" fill="#161619" stroke="#1C1C1F" stroke-width="8.50682"/>
<path d="M160.847 88.7848L124.34 110.01V152.46L160.847 173.684L197.636 152.46V110.01L160.847 88.7848Z" fill="#008CB9"/>
<path d="M242.35 154.441L205.56 175.665V218.115L242.35 239.34L279.14 218.115V175.665L242.35 154.441Z" fill="#008CB9"/>
<path d="M160.847 222.077L124.34 243.302V285.752L160.847 306.977L197.636 285.752V243.302L160.847 222.077Z" fill="#008CB9"/>
<path d="M213.484 232.831L205.56 238.491V263.961L234.143 244.717L213.484 232.831Z" fill="#008CB9"/>
<path d="M234.143 150.478L205.56 131.234V156.704L213.484 162.647L234.143 150.478Z" fill="#008CB9"/>
</g>
<defs>
<filter id="filter0_d_16_43" x="5.67122" y="5.67122" width="376.466" height="384.419" filterUnits="userSpaceOnUse" color-interpolation-filters="sRGB">
<feFlood flood-opacity="0" result="BackgroundImageFix"/>
<feColorMatrix in="SourceAlpha" type="matrix" values="0 0 0 0 0 0 0 0 0 0 0 0 0 0 0 0 0 0 127 0" result="hardAlpha"/>
<feOffset/>
<feGaussianBlur stdDeviation="11.3424"/>
<feComposite in2="hardAlpha" operator="out"/>
<feColorMatrix type="matrix" values="0 0 0 0 0 0 0 0 0 0.705882 0 0 0 0 0.882353 0 0 0 1 0"/>
<feBlend mode="normal" in2="BackgroundImageFix" result="effect1_dropShadow_16_43"/>
<feBlend mode="normal" in="SourceGraphic" in2="effect1_dropShadow_16_43" result="shape"/>
</filter>
</defs>
</svg>
