<svg width="390" height="398" viewBox="0 0 390 398" fill="none" xmlns="http://www.w3.org/2000/svg">
<g filter="url(#filter0_d_2434_613)">
<path d="M356.191 198.434C356.191 290.061 283.68 364.167 194.445 364.167C105.21 364.167 32.6995 290.061 32.6995 198.434C32.6995 106.805 105.21 32.7002 194.445 32.7002C283.68 32.7002 356.191 106.805 356.191 198.434Z" fill="#10131C" stroke="#10131C" stroke-width="8.53061"/>
<path fill-rule="evenodd" clip-rule="evenodd" d="M171.427 127.518L200.007 144.014V165.177L222.289 178.037L242.607 166.31L271.186 182.806V215.797L242.607 232.292L221.823 220.296L200.007 232.888V254.588L171.427 271.083L142.847 254.588V221.597L171.427 205.101L193.173 217.653L214.027 205.616V192.412L193.67 180.662L171.427 193.5L142.847 177.005V144.014L171.427 127.518Z" fill="#4BD8FA"/>
</g>
<defs>
<filter id="filter0_d_2434_613" x="5.68585" y="5.68682" width="377.519" height="385.494" filterUnits="userSpaceOnUse" color-interpolation-filters="sRGB">
<feFlood flood-opacity="0" result="BackgroundImageFix"/>
<feColorMatrix in="SourceAlpha" type="matrix" values="0 0 0 0 0 0 0 0 0 0 0 0 0 0 0 0 0 0 127 0" result="hardAlpha"/>
<feOffset/>
<feGaussianBlur stdDeviation="11.3741"/>
<feComposite in2="hardAlpha" operator="out"/>
<feColorMatrix type="matrix" values="0 0 0 0 0 0 0 0 0 0.705882 0 0 0 0 0.882353 0 0 0 1 0"/>
<feBlend mode="normal" in2="BackgroundImageFix" result="effect1_dropShadow_2434_613"/>
<feBlend mode="normal" in="SourceGraphic" in2="effect1_dropShadow_2434_613" result="shape"/>
</filter>
</defs>
</svg>
